<svg xmlns="http://www.w3.org/2000/svg" width="51" height="55" viewBox="0 0 51 55" fill="none">
  <path d="M5 17.6181C15.75 15.9822 29.538 -3.80016 29.538 9.67239C29.538 20.8898 11.5644 36.9209 31.1739 27.667C51.9728 17.8518 45.8967 31.8735 39.8207 49.6344" stroke="url(#paint0_linear_36_884)" stroke-width="9.34783" stroke-linecap="round"/>
  <path d="M40.5216 45.4293C40.5216 47.3924 39.0305 48.9348 37.2499 48.9348C35.4692 48.9348 33.9781 47.3924 33.9781 45.4293C33.9781 43.4662 35.4692 41.9239 37.2499 41.9239C39.0305 41.9239 40.5216 43.4662 40.5216 45.4293Z" stroke="#1F1F1F" stroke-width="0.934783"/>
  <path d="M47.5328 47.2989C47.5328 49.262 46.0417 50.8043 44.2611 50.8043C42.4805 50.8043 40.9894 49.262 40.9894 47.2989C40.9894 45.3358 42.4805 43.7935 44.2611 43.7935C46.0417 43.7935 47.5328 45.3358 47.5328 47.2989Z" stroke="#1F1F1F" stroke-width="0.934783"/>
  <circle cx="37.2502" cy="47.0652" r="0.934783" fill="#1F1F1F"/>
  <circle cx="42.8586" cy="48" r="0.934783" fill="#1F1F1F"/>
  <defs>
    <linearGradient id="paint0_linear_36_884" x1="25.0978" y1="-1.77717" x2="53.1413" y2="58.2826" gradientUnits="userSpaceOnUse">
      <stop stop-color="#6B41FB"/>
      <stop offset="0.478825" stop-color="#FD9ECA"/>
      <stop offset="1" stop-color="#FAD026"/>
    </linearGradient>
  </defs>
</svg>