<svg xmlns="http://www.w3.org/2000/svg" width="32" height="26" viewBox="0 0 32 26" fill="none">
    <path d="M0.200998 7.82751L1.21869 18.3463C1.26828 18.8589 1.69906 19.25 2.21404 19.25H29.1689C29.6685 19.25 30.0915 18.8812 30.1596 18.3862L31.6912 7.24605C31.8096 6.38498 30.8488 5.79323 30.1331 6.2864L23.1422 11.1036C22.645 11.4462 21.96 11.2734 21.6847 10.736L16.5635 0.737664C16.1919 0.012174 15.155 0.0121753 14.7834 0.737665L9.65053 10.7589C9.37941 11.2882 8.70903 11.4653 8.21183 11.139L1.74501 6.89516C1.04302 6.43448 0.12014 6.99176 0.200998 7.82751Z" fill="url(#paint0_linear_320_3724)"/>
    <path d="M1.30612 25V22.5C1.30612 21.9477 1.75384 21.5 2.30612 21.5H29.0408C29.5931 21.5 30.0408 21.9477 30.0408 22.5V25C30.0408 25.5523 29.5931 26 29.0408 26H2.30612C1.75384 26 1.30612 25.5523 1.30612 25Z" fill="url(#paint1_linear_320_3724)"/>
    <defs>
        <linearGradient id="paint0_linear_320_3724" x1="-8.32" y1="3.90909" x2="64.7114" y2="64.5862" gradientUnits="userSpaceOnUse">
            <stop stop-color="#6B41FB"/>
            <stop offset="0.412696" stop-color="#FD9ECA"/>
            <stop offset="0.685163" stop-color="#FAD026"/>
        </linearGradient>
        <linearGradient id="paint1_linear_320_3724" x1="-8.32" y1="3.90909" x2="64.7114" y2="64.5862" gradientUnits="userSpaceOnUse">
            <stop stop-color="#6B41FB"/>
            <stop offset="0.412696" stop-color="#FD9ECA"/>
            <stop offset="0.685163" stop-color="#FAD026"/>
        </linearGradient>
    </defs>
</svg>