<svg width="17" height="13" viewBox="0 0 17 13" fill="none" xmlns="http://www.w3.org/2000/svg">
<path d="M14.8399 0.833354C14.0159 0.585437 13.1102 0.479187 12.2416 0.479187C10.7939 0.479187 9.23492 0.76252 8.15845 1.54169C7.08199 0.76252 5.52298 0.479187 4.07532 0.479187C2.62766 0.479187 1.06865 0.76252 -0.0078125 1.54169V11.9188C-0.0078125 12.0959 0.177784 12.2729 0.363381 12.2729C0.43762 12.2729 0.47474 12.2375 0.548978 12.2375C1.5512 11.7771 2.99886 11.4584 4.07532 11.4584C5.52298 11.4584 7.08199 11.7417 8.15845 12.5209C9.16068 11.9188 10.9795 11.4584 12.2416 11.4584C13.4665 11.4584 14.7286 11.6709 15.7679 12.2021C15.8422 12.2375 15.8793 12.2375 15.9535 12.2375C16.1391 12.2375 16.3247 12.0604 16.3247 11.8834V1.54169C15.8793 1.22294 15.3967 1.01044 14.8399 0.833354ZM14.8399 10.3959C14.0233 10.1479 13.1325 10.0417 12.2416 10.0417C10.9795 10.0417 9.16068 10.5021 8.15845 11.1042V2.95835C9.16068 2.35627 10.9795 1.89585 12.2416 1.89585C13.1325 1.89585 14.0233 2.0021 14.8399 2.25002V10.3959Z" fill="white"/>
<path d="M12.2416 4.72919C12.8949 4.72919 13.5259 4.79294 14.0976 4.91335V3.83669C13.5111 3.73044 12.88 3.66669 12.2416 3.66669C10.9795 3.66669 9.83625 3.8721 8.90084 4.2546V5.43044C9.73974 4.9771 10.9053 4.72919 12.2416 4.72919Z" fill="white"/>
<path d="M8.90084 6.13877V7.3146C9.73974 6.86127 10.9053 6.61335 12.2416 6.61335C12.8949 6.61335 13.5259 6.6771 14.0976 6.79752V5.72085C13.5111 5.6146 12.88 5.55085 12.2416 5.55085C10.9795 5.55085 9.83625 5.76335 8.90084 6.13877Z" fill="white"/>
<path d="M12.2416 7.4421C10.9795 7.4421 9.83625 7.64752 8.90084 8.03002V9.20585C9.73974 8.75252 10.9053 8.5046 12.2416 8.5046C12.8949 8.5046 13.5259 8.56835 14.0976 8.68877V7.6121C13.5111 7.49877 12.88 7.4421 12.2416 7.4421Z" fill="white"/>
</svg>
